<?xml version="1.0" encoding="UTF-8" standalone="no"?>
<!-- Created with Inkscape (http://www.inkscape.org/) -->

<svg
   xmlns:dc="http://purl.org/dc/elements/1.1/"
   xmlns:cc="http://creativecommons.org/ns#"
   xmlns:rdf="http://www.w3.org/1999/02/22-rdf-syntax-ns#"
   xmlns:svg="http://www.w3.org/2000/svg"
   xmlns="http://www.w3.org/2000/svg"
   xmlns:sodipodi="http://sodipodi.sourceforge.net/DTD/sodipodi-0.dtd"
   xmlns:inkscape="http://www.inkscape.org/namespaces/inkscape"
   width="18"
   height="18"
   id="svg2"
   version="1.1"
   inkscape:version="0.48.4 r9939"
   sodipodi:docname="Loop_18px.svg"
   viewBox="0 0 18 18"
   preserveAspectRatio="none">
  <defs
     id="defs4" />
  <sodipodi:namedview
     id="base"
     pagecolor="#ffffff"
     bordercolor="#666666"
     borderopacity="1.0"
     inkscape:pageopacity="0.0"
     inkscape:pageshadow="2"
     inkscape:zoom="7.9195959"
     inkscape:cx="7.8870887"
     inkscape:cy="15.223362"
     inkscape:document-units="px"
     inkscape:current-layer="layer2"
     showgrid="false"
     inkscape:showpageshadow="false"
     inkscape:window-width="1920"
     inkscape:window-height="1031"
     inkscape:window-x="0"
     inkscape:window-y="25"
     inkscape:window-maximized="1" />
  <metadata
     id="metadata7">
    <rdf:RDF>
      <cc:Work
         rdf:about="">
        <dc:format>image/svg+xml</dc:format>
        <dc:type
           rdf:resource="http://purl.org/dc/dcmitype/StillImage" />
        <dc:title />
      </cc:Work>
    </rdf:RDF>
  </metadata>
  <g
     inkscape:groupmode="layer"
     id="layer2"
     inkscape:label="Calque2"
     transform="translate(0,-43)"
     style="display:inline"
     sodipodi:insensitive="true">
    <g
       id="g4834"
       transform="matrix(0.28125,0,0,0.28125,0,43.84375)">
      <rect
         y="-3.0000005"
         x="3.9866296e-07"
         height="64"
         width="64"
         id="rect3156"
         style="fill:#727272;fill-opacity:1;fill-rule:nonzero;stroke:#000000;stroke-width:0;stroke-miterlimit:4;stroke-opacity:1;stroke-dasharray:none"
         ry="2.9041886" />
      <path
         id="path3304"
         d="M 0,-3.0000008 H 64.000001 V 61 H 0 z"
         inkscape:connector-curvature="0"
         style="fill:none" />
      <g
         transform="matrix(2.6666667,0,0,2.6666667,0,-3.0000008)"
         id="g4830"
         style="fill:#ffffff">
        <path
           inkscape:connector-curvature="0"
           d="M 12,4 V 1 L 8,5 12,9 V 6 c 3.31,0 6,2.69 6,6 0,1.01 -0.25,1.97 -0.7,2.8 l 1.46,1.46 C 19.54,15.03 20,13.57 20,12 20,7.58 16.42,4 12,4 z m 0,14 C 8.69,18 6,15.31 6,12 6,10.99 6.25,10.03 6.7,9.2 L 5.24,7.74 C 4.46,8.97 4,10.43 4,12 c 0,4.42 3.58,8 8,8 v 3 l 4,-4 -4,-4 v 3 z"
           id="path4820" />
        <path
           style="fill:none"
           inkscape:connector-curvature="0"
           d="M 0,0 H 24 V 24 H 0 z"
           id="path4822" />
      </g>
    </g>
  </g>
</svg>
