<?xml version="1.0" encoding="UTF-8" standalone="no"?>
<!-- Created with Inkscape (http://www.inkscape.org/) -->

<svg
   xmlns:dc="http://purl.org/dc/elements/1.1/"
   xmlns:cc="http://creativecommons.org/ns#"
   xmlns:rdf="http://www.w3.org/1999/02/22-rdf-syntax-ns#"
   xmlns:svg="http://www.w3.org/2000/svg"
   xmlns="http://www.w3.org/2000/svg"
   xmlns:sodipodi="http://sodipodi.sourceforge.net/DTD/sodipodi-0.dtd"
   xmlns:inkscape="http://www.inkscape.org/namespaces/inkscape"
   width="18"
   height="18"
   id="svg2"
   version="1.1"
   inkscape:version="0.48.4 r9939"
   sodipodi:docname="Speed_64px.svg"
   viewBox="0 0 18 18"
   preserveAspectRatio="none">
  <defs
     id="defs4" />
  <sodipodi:namedview
     id="base"
     pagecolor="#ffffff"
     bordercolor="#666666"
     borderopacity="1.0"
     inkscape:pageopacity="0.0"
     inkscape:pageshadow="2"
     inkscape:zoom="7.919596"
     inkscape:cx="7.1605026"
     inkscape:cy="23.207845"
     inkscape:document-units="px"
     inkscape:current-layer="layer3"
     showgrid="false"
     inkscape:showpageshadow="false"
     inkscape:window-width="1920"
     inkscape:window-height="1031"
     inkscape:window-x="0"
     inkscape:window-y="25"
     inkscape:window-maximized="1" />
  <metadata
     id="metadata7">
    <rdf:RDF>
      <cc:Work
         rdf:about="">
        <dc:format>image/svg+xml</dc:format>
        <dc:type
           rdf:resource="http://purl.org/dc/dcmitype/StillImage" />
        <dc:title />
      </cc:Work>
    </rdf:RDF>
  </metadata>
  <g
     inkscape:groupmode="layer"
     id="layer3"
     inkscape:label="Calque4"
     transform="translate(0,-43)"
     sodipodi:insensitive="true">
    <g
       id="g2988"
       transform="matrix(0.28125,0,0,0.28125,0,43.843752)">
      <rect
         y="-2.9999974"
         x="0"
         height="64"
         width="64"
         id="rect3077"
         style="fill:#ff5722;fill-opacity:1;fill-rule:nonzero;stroke:#000000;stroke-width:0;stroke-miterlimit:4;stroke-opacity:1;stroke-dasharray:none"
         ry="3.6618028" />
      <g
         transform="matrix(1.2078782,0,0,1.4051032,-1.1009215,-60.350732)"
         id="g3142">
        <g
           transform="matrix(0.48484848,0,0,0.48484848,3.1617644,39.324986)"
           id="g3124">
          <path
             style="fill:#ffffff;fill-opacity:1"
             inkscape:connector-curvature="0"
             d="M 94.9,47.9 92.4,49.7 75.7,62 73,64 c 0.2,1.5 0.3,3.1 0.3,4.6 0,0.8 0.7,1.5 1.5,1.5 H 98 c 0.8,0 1.5,-0.7 1.5,-1.5 0,-7.4 -1.6,-14.4 -4.6,-20.7 z"
             id="path3126" />
          <path
             style="fill:#ffffff;fill-opacity:1"
             inkscape:connector-curvature="0"
             d="m 69.8,53.4 2.8,-1.1 17.7,-6.8 2.9,-1.1 C 84.7,29.4 68.5,19.1 50,19.1 22.7,19.1 0.5,41.3 0.5,68.6 c 0,0.8 0.7,1.5 1.5,1.5 0.8,0 1.5,-0.7 1.5,-1.5 0,0 0,0 0,0 0,-19.2 15.7,-34.9 34.9,-34.9 13.8,0 25.7,8.1 31.4,19.7 z"
             id="path3128" />
          <path
             style="fill:#ffffff;fill-opacity:1"
             inkscape:connector-curvature="0"
             d="m 56.7,61.7 c -0.4,0.2 -1,0.1 -1.4,-0.1 -1.7,-1.1 -3.7,-1.7 -5.7,-1.7 -1.7,0 -3.5,0.4 -5,1.3 -5.1,2.8 -7,9.2 -4.2,14.3 2.8,5.1 9.2,7 14.3,4.2 3.4,-1.8 5.5,-5.4 5.5,-9.2 0,-0.5 0.2,-0.9 0.6,-1.2 L 86.5,50.4 56.7,61.7 z"
             id="path3130" />
        </g>
      </g>
    </g>
  </g>
</svg>
