<?xml version="1.0" encoding="UTF-8" standalone="no"?>
<!-- Created with Inkscape (http://www.inkscape.org/) -->

<svg
   xmlns:dc="http://purl.org/dc/elements/1.1/"
   xmlns:cc="http://creativecommons.org/ns#"
   xmlns:rdf="http://www.w3.org/1999/02/22-rdf-syntax-ns#"
   xmlns:svg="http://www.w3.org/2000/svg"
   xmlns="http://www.w3.org/2000/svg"
   xmlns:sodipodi="http://sodipodi.sourceforge.net/DTD/sodipodi-0.dtd"
   xmlns:inkscape="http://www.inkscape.org/namespaces/inkscape"
   width="18"
   height="18"
   id="svg2"
   version="1.1"
   inkscape:version="0.48.4 r9939"
   sodipodi:docname="Take_Picture_64px.svg"
   viewBox="0 0 18 18"
   preserveAspectRatio="none">
  <defs
     id="defs4" />
  <sodipodi:namedview
     id="base"
     pagecolor="#ffffff"
     bordercolor="#666666"
     borderopacity="1.0"
     inkscape:pageopacity="0.0"
     inkscape:pageshadow="2"
     inkscape:zoom="7.9195959"
     inkscape:cx="7.1605011"
     inkscape:cy="15.185773"
     inkscape:document-units="px"
     inkscape:current-layer="layer2"
     showgrid="false"
     inkscape:showpageshadow="false"
     inkscape:window-width="1920"
     inkscape:window-height="1031"
     inkscape:window-x="0"
     inkscape:window-y="25"
     inkscape:window-maximized="1" />
  <metadata
     id="metadata7">
    <rdf:RDF>
      <cc:Work
         rdf:about="">
        <dc:format>image/svg+xml</dc:format>
        <dc:type
           rdf:resource="http://purl.org/dc/dcmitype/StillImage" />
        <dc:title />
      </cc:Work>
    </rdf:RDF>
  </metadata>
  <g
     inkscape:groupmode="layer"
     id="layer2"
     inkscape:label="Calque2"
     transform="translate(0,-43)"
     sodipodi:insensitive="true">
    <g
       id="g2987"
       transform="matrix(0.28125,0,0,0.28125,0,43.84373)">
      <rect
         y="-3.0000279"
         x="0"
         height="64"
         width="64"
         id="rect3074"
         style="fill:#00bcd4;fill-opacity:1;fill-rule:nonzero;stroke:#000000;stroke-width:0;stroke-miterlimit:4;stroke-opacity:1;stroke-dasharray:none"
         ry="3.7880721" />
      <g
         transform="matrix(2.0983606,0,0,2.0983606,6.8196719,3.8196746)"
         id="g3267"
         style="fill:#000000">
        <circle
           style="fill:#ffffff;fill-opacity:1"
           d="m 15.2,12 c 0,1.767311 -1.432689,3.2 -3.2,3.2 -1.767311,0 -3.2,-1.432689 -3.2,-3.2 0,-1.767311 1.432689,-3.2 3.2,-3.2 1.767311,0 3.2,1.432689 3.2,3.2 z"
           sodipodi:ry="3.2"
           sodipodi:rx="3.2"
           sodipodi:cy="12"
           sodipodi:cx="12"
           cx="12"
           cy="12"
           r="3.2"
           id="circle3255" />
        <path
           style="fill:#ffffff;fill-opacity:1"
           inkscape:connector-curvature="0"
           d="M 9,2 7.17,4 H 4 C 2.9,4 2,4.9 2,6 v 12 c 0,1.1 0.9,2 2,2 h 16 c 1.1,0 2,-0.9 2,-2 V 6 C 22,4.9 21.1,4 20,4 H 16.83 L 15,2 H 9 z m 3,15 C 9.24,17 7,14.76 7,12 7,9.24 9.24,7 12,7 c 2.76,0 5,2.24 5,5 0,2.76 -2.24,5 -5,5 z"
           id="path3257" />
        <path
           style="fill:none"
           inkscape:connector-curvature="0"
           d="M 0,0 H 24 V 24 H 0 z"
           id="path3259" />
      </g>
    </g>
  </g>
</svg>
