<?xml version="1.0" encoding="UTF-8" standalone="no"?>
<!-- Created with Inkscape (http://www.inkscape.org/) -->

<svg
   xmlns:dc="http://purl.org/dc/elements/1.1/"
   xmlns:cc="http://creativecommons.org/ns#"
   xmlns:rdf="http://www.w3.org/1999/02/22-rdf-syntax-ns#"
   xmlns:svg="http://www.w3.org/2000/svg"
   xmlns="http://www.w3.org/2000/svg"
   xmlns:sodipodi="http://sodipodi.sourceforge.net/DTD/sodipodi-0.dtd"
   xmlns:inkscape="http://www.inkscape.org/namespaces/inkscape"
   width="18"
   height="18"
   id="svg2"
   version="1.1"
   inkscape:version="0.48.4 r9939"
   sodipodi:docname="Turn_64px.svg"
   viewBox="0 0 18 18"
   preserveAspectRatio="none">
  <defs
     id="defs4" />
  <sodipodi:namedview
     id="base"
     pagecolor="#ffffff"
     bordercolor="#666666"
     borderopacity="1.0"
     inkscape:pageopacity="0.0"
     inkscape:pageshadow="2"
     inkscape:zoom="5.6"
     inkscape:cx="-42.892857"
     inkscape:cy="37.869233"
     inkscape:document-units="px"
     inkscape:current-layer="layer2"
     showgrid="false"
     inkscape:showpageshadow="false"
     inkscape:window-width="1920"
     inkscape:window-height="1031"
     inkscape:window-x="0"
     inkscape:window-y="25"
     inkscape:window-maximized="1" />
  <metadata
     id="metadata7">
    <rdf:RDF>
      <cc:Work
         rdf:about="">
        <dc:format>image/svg+xml</dc:format>
        <dc:type
           rdf:resource="http://purl.org/dc/dcmitype/StillImage" />
        <dc:title />
      </cc:Work>
    </rdf:RDF>
  </metadata>
  <g
     inkscape:groupmode="layer"
     id="layer2"
     inkscape:label="Calque2"
     style="display:inline"
     transform="translate(0,-43)"
     sodipodi:insensitive="true">
    <g
       id="g2986"
       transform="matrix(0.28125,0,0,0.28125,-2.875e-7,43.843752)">
      <rect
         y="-2.9999974"
         x="0"
         height="64"
         width="64"
         id="rect2985"
         style="fill:#00bcd4;fill-opacity:1;fill-rule:nonzero;stroke:#000000;stroke-width:0;stroke-miterlimit:4;stroke-opacity:1;stroke-dasharray:none"
         ry="3.75" />
      <g
         transform="matrix(2.6666667,0,0,2.6666667,-4e-7,-2.9999978)"
         id="g3542"
         style="fill:#000000">
        <path
           style="fill:#ffffff;fill-opacity:1"
           inkscape:connector-curvature="0"
           d="M 7.34,6.41 0.86,12.9 7.35,19.38 13.84,12.9 7.34,6.41 z M 3.69,12.9 7.35,9.24 11,12.9 7.34,16.56 3.69,12.9 z M 19.36,6.64 C 17.61,4.88 15.3,4 13,4 V 0.76 L 8.76,5 13,9.24 V 6 c 1.79,0 3.58,0.68 4.95,2.05 2.73,2.73 2.73,7.17 0,9.9 C 16.58,19.32 14.79,20 13,20 12.03,20 11.06,19.79 10.16,19.39 L 8.67,20.88 C 10.02,21.62 11.51,22 13,22 c 2.3,0 4.61,-0.88 6.36,-2.64 3.52,-3.51 3.52,-9.21 0,-12.72 z"
           id="path3532" />
        <path
           style="fill:none"
           inkscape:connector-curvature="0"
           d="M 0,0 H 24 V 24 H 0 z"
           id="path3534" />
      </g>
    </g>
  </g>
</svg>
