<?xml version="1.0" encoding="UTF-8" standalone="no"?>
<!-- Created with Inkscape (http://www.inkscape.org/) -->

<svg
   xmlns:dc="http://purl.org/dc/elements/1.1/"
   xmlns:cc="http://creativecommons.org/ns#"
   xmlns:rdf="http://www.w3.org/1999/02/22-rdf-syntax-ns#"
   xmlns:svg="http://www.w3.org/2000/svg"
   xmlns="http://www.w3.org/2000/svg"
   xmlns:sodipodi="http://sodipodi.sourceforge.net/DTD/sodipodi-0.dtd"
   xmlns:inkscape="http://www.inkscape.org/namespaces/inkscape"
   width="64"
   height="64"
   id="svg2"
   version="1.1"
   inkscape:version="0.48.4 r9939"
   sodipodi:docname="Timer_64px.svg"
   viewBox="0 0 64 64"
   preserveAspectRatio="none">
  <defs
     id="defs4" />
  <sodipodi:namedview
     id="base"
     pagecolor="#ffffff"
     bordercolor="#666666"
     borderopacity="1.0"
     inkscape:pageopacity="0.0"
     inkscape:pageshadow="2"
     inkscape:zoom="5.6"
     inkscape:cx="-44.417356"
     inkscape:cy="20.743275"
     inkscape:document-units="px"
     inkscape:current-layer="layer2"
     showgrid="false"
     inkscape:showpageshadow="false"
     inkscape:window-width="1920"
     inkscape:window-height="1031"
     inkscape:window-x="0"
     inkscape:window-y="25"
     inkscape:window-maximized="1" />
  <metadata
     id="metadata7">
    <rdf:RDF>
      <cc:Work
         rdf:about="">
        <dc:format>image/svg+xml</dc:format>
        <dc:type
           rdf:resource="http://purl.org/dc/dcmitype/StillImage" />
        <dc:title />
      </cc:Work>
    </rdf:RDF>
  </metadata>
  <g
     inkscape:groupmode="layer"
     id="layer2"
     inkscape:label="Calque2"
     transform="translate(0,3)"
     sodipodi:insensitive="true">
    <rect
       ry="3.75"
       style="fill:#00bcd4;fill-opacity:1;fill-rule:nonzero;stroke:#000000;stroke-width:0;stroke-miterlimit:4;stroke-opacity:1;stroke-dasharray:none"
       id="rect3206"
       width="64"
       height="64"
       x="0"
       y="-2.9999638" />
    <path
       style="fill:none"
       inkscape:connector-curvature="0"
       d="M -4e-7,-2.9999642 H 64 V 61.000037 H -4e-7 z"
       id="path3331" />
    <path
       style="fill:#ffffff;fill-opacity:1"
       inkscape:connector-curvature="0"
       d="M 40,-0.3332975 H 24 V 5.0000359 H 40 V -0.3332975 z M 29.333333,34.33337 h 5.333334 V 18.333369 H 29.333333 V 34.33337 z m 21.413334,-17.626667 3.786667,-3.786667 c -1.146667,-1.36 -2.4,-2.64 -3.76,-3.76 l -3.786667,3.786667 C 42.853333,9.640036 37.653333,7.6667026 32,7.6667026 c -13.253333,0 -24.0000003,10.7466664 -24.0000003,24.0000004 0,13.253333 10.7200003,24 24.0000003,24 13.28,0 24,-10.746667 24,-24 0,-5.653334 -1.973333,-10.853334 -5.253333,-14.96 z M 32,50.33337 c -10.32,0 -18.666667,-8.346667 -18.666667,-18.666667 0,-10.32 8.346667,-18.666667 18.666667,-18.666667 10.32,0 18.666667,8.346667 18.666667,18.666667 0,10.32 -8.346667,18.666667 -18.666667,18.666667 z"
       id="path3333" />
  </g>
</svg>
